<?xml version="1.0" standalone="no"?>
<!DOCTYPE svg PUBLIC "-//W3C//DTD SVG 20010904//EN"
 "http://www.w3.org/TR/2001/REC-SVG-20010904/DTD/svg10.dtd">
<svg version="1.0" xmlns="http://www.w3.org/2000/svg"
 width="507.000000pt" height="507.000000pt" viewBox="0 0 507.000000 507.000000"
 preserveAspectRatio="xMidYMid meet">
<metadata>
Created by potrace 1.14, written by Peter Selinger 2001-2017
</metadata>
<g transform="translate(0.000000,507.000000) scale(0.100000,-0.100000)"
fill="#000000" stroke="none">
<path d="M2382 4859 c-33 -12 -72 -51 -99 -96 l-25 -43 -66 -1 c-37 0 -97 -3
-134 -5 -64 -5 -67 -4 -87 24 -11 16 -34 35 -50 42 -65 27 -140 -34 -127 -103
5 -30 2 -34 -52 -68 -56 -36 -523 -358 -552 -382 -9 -7 -36 -25 -60 -42 -25
-16 -90 -62 -145 -100 -159 -113 -157 -112 -191 -88 -40 27 -90 16 -127 -28
-33 -40 -34 -61 -5 -115 l22 -42 -107 -216 c-59 -119 -107 -220 -107 -225 0
-4 -22 -27 -50 -50 -51 -43 -63 -74 -38 -99 11 -11 13 -55 3 -102 -3 -14 -7
-43 -10 -65 -4 -22 -7 -47 -9 -55 -1 -8 -6 -37 -10 -65 -4 -27 -9 -63 -12 -80
-2 -16 -13 -88 -25 -160 -22 -143 -30 -297 -19 -372 8 -53 20 -155 26 -218 1
-22 5 -58 8 -80 6 -39 4 -41 -43 -75 -104 -73 -123 -173 -52 -272 36 -51 95
-73 173 -64 49 5 60 3 65 -11 3 -9 50 -82 103 -162 134 -203 170 -260 170
-272 0 -5 -6 -22 -14 -38 -13 -24 -13 -30 5 -57 27 -44 62 -60 95 -45 32 14
32 14 208 -152 172 -163 248 -224 311 -248 16 -7 59 -25 95 -41 36 -17 83 -37
105 -45 41 -17 85 -50 85 -65 0 -14 33 -45 57 -52 12 -4 37 0 56 8 19 8 39 11
43 7 5 -4 32 -17 60 -29 27 -11 84 -37 126 -56 42 -19 88 -38 102 -42 14 -3
35 -21 47 -40 43 -71 89 -81 144 -33 25 23 42 30 60 27 14 -3 25 -2 25 1 0 3
33 6 73 7 71 1 328 13 397 18 19 2 87 7 150 10 63 4 125 10 137 13 18 4 25 -1
32 -20 10 -26 28 -36 73 -42 41 -6 81 32 82 78 1 31 7 40 45 64 25 15 93 60
153 98 59 39 178 115 263 170 86 55 219 142 296 193 77 50 145 92 150 92 5 0
9 4 9 8 0 4 14 16 31 26 23 14 41 16 74 12 36 -6 47 -3 73 19 17 14 34 35 37
45 6 19 -8 54 -30 77 -11 10 26 117 110 318 4 11 9 25 11 30 1 6 46 125 100
265 53 140 106 281 116 312 17 49 24 59 52 68 42 14 66 40 70 76 5 38 -8 60
-43 79 -31 15 -37 31 -47 116 -3 30 -8 65 -10 79 -2 14 -7 48 -10 75 -3 28 -9
82 -14 120 -5 39 -12 90 -15 115 -3 25 -8 61 -11 80 -3 19 -8 53 -10 75 -2 22
-7 55 -10 73 -3 18 -7 57 -10 85 -2 29 -6 62 -9 74 -4 17 2 28 28 44 122 80
121 240 -1 303 -35 18 -81 23 -128 12 -30 -7 -32 -4 -95 91 -35 54 -66 100
-69 103 -3 3 -32 46 -65 95 -33 50 -77 114 -98 143 -21 29 -44 75 -51 103 -7
27 -16 52 -19 55 -3 3 -31 12 -64 21 -32 8 -62 19 -68 23 -12 10 -84 52 -505
295 -113 65 -223 129 -245 141 -22 12 -66 36 -97 54 -65 35 -70 41 -73 82 -8
87 -133 111 -175 34 -7 -14 -18 -27 -24 -27 -6 -1 -47 -2 -91 -4 -44 -1 -106
-4 -137 -5 -57 -4 -88 9 -88 35 0 19 -63 71 -102 84 -37 12 -93 12 -126 0z
m120 -40 c37 -19 68 -51 68 -71 0 -24 -27 -23 -68 2 -42 26 -61 25 -115 -4
-25 -13 -50 -20 -57 -16 -18 11 14 66 47 82 37 18 97 22 125 7z m453 -133 c9
-9 17 -24 17 -33 1 -17 -96 -273 -141 -373 -6 -14 -18 -45 -26 -70 -20 -58
-42 -90 -61 -90 -9 0 -38 48 -76 128 -34 70 -63 129 -63 132 -1 3 -16 35 -34
71 l-34 66 46 56 c26 31 49 72 53 91 l6 35 72 3 c145 6 225 1 241 -16z m-587
-31 c18 -25 43 -50 56 -55 20 -7 55 -48 44 -51 -46 -12 -101 14 -136 65 -22
32 -28 66 -15 79 12 13 19 7 51 -38z m219 10 c-10 -60 -63 -113 -89 -87 -15
15 51 122 76 122 16 0 18 -5 13 -35z m-307 -40 c42 -88 81 -113 180 -118 30
-2 38 -8 65 -57 54 -96 155 -317 155 -338 0 -11 -5 -22 -10 -24 -6 -2 -12 -13
-15 -26 -6 -34 -12 -39 -57 -47 -24 -4 -49 -9 -55 -11 -296 -64 -623 -132
-676 -139 -22 -4 -49 -10 -62 -15 -19 -7 -26 -5 -38 14 -9 13 -34 41 -57 64
l-42 41 104 308 104 308 46 22 c26 12 49 31 53 43 3 11 12 20 18 21 7 1 63 3
126 5 63 3 117 7 120 9 8 9 9 6 41 -60z m912 -8 c63 -38 136 -79 213 -121 11
-6 22 -14 25 -17 3 -3 19 -12 35 -21 17 -8 86 -47 154 -86 68 -40 124 -72 126
-72 2 0 50 -28 107 -63 57 -34 118 -69 136 -76 17 -7 32 -17 32 -22 0 -5 0
-12 0 -16 0 -4 -17 -8 -37 -9 -32 -1 -133 -6 -378 -19 -27 -2 -111 -6 -185
-10 -74 -4 -155 -8 -180 -10 -111 -10 -391 -17 -413 -11 -14 3 -24 12 -23 18
4 22 17 62 31 93 7 17 34 84 59 150 26 66 51 130 57 143 5 12 14 34 20 50 6
15 15 35 20 44 5 10 9 24 9 31 0 8 9 22 20 32 11 10 20 15 20 11 0 -4 10 0 22
8 33 24 49 20 130 -27z m-1352 -14 c0 -5 -12 -39 -25 -78 -14 -38 -60 -173
-101 -300 -42 -126 -81 -235 -85 -241 -5 -6 -32 -14 -59 -17 -61 -7 -99 -33
-140 -93 -28 -40 -34 -44 -63 -39 -54 10 -80 13 -136 20 -30 4 -63 9 -75 11
-12 2 -46 6 -76 9 -30 2 -65 7 -78 9 -13 3 -51 8 -85 11 -73 8 -77 10 -70 33
5 18 37 44 168 133 196 135 250 173 253 181 2 4 7 8 12 8 7 0 263 174 349 237
133 99 212 141 211 116z m2185 -535 c2 -2 5 -15 7 -30 2 -15 7 -30 10 -33 3
-4 -7 -33 -23 -65 -16 -32 -29 -61 -29 -64 0 -3 -11 -30 -25 -60 -14 -30 -25
-57 -25 -60 0 -2 -13 -33 -29 -68 -40 -89 -93 -208 -136 -311 -39 -92 -48
-101 -105 -112 -40 -7 -29 -14 -166 112 -49 45 -99 90 -111 101 -13 10 -51 46
-86 78 -35 32 -83 76 -107 97 -25 22 -70 62 -100 90 -31 29 -92 84 -135 122
-43 39 -96 86 -119 107 l-40 36 45 6 c24 3 114 8 199 11 85 2 196 7 245 9 50
3 137 8 195 11 58 3 134 8 170 10 36 3 119 7 184 10 66 3 121 7 123 9 4 4 53
-1 58 -6z m-1324 -95 c11 -11 6 -52 -27 -228 -8 -41 -24 -131 -29 -165 -6 -41
-22 -124 -30 -160 -3 -14 -7 -43 -10 -65 -2 -22 -9 -55 -14 -74 -6 -18 -10
-36 -9 -40 0 -3 0 -8 -2 -11 -1 -3 -3 -21 -5 -40 -1 -19 -10 -69 -18 -110 -9
-41 -19 -97 -23 -125 -5 -27 -9 -53 -10 -57 -1 -5 -2 -16 -3 -26 -1 -14 -16
-23 -55 -34 -30 -8 -59 -12 -63 -9 -5 3 -58 67 -118 141 -60 74 -111 137 -114
140 -4 3 -33 39 -65 80 -33 41 -73 91 -90 111 -31 37 -47 56 -150 184 -56 69
-68 83 -114 137 l-22 26 25 48 c14 26 25 57 25 70 0 28 25 54 53 55 27 1 49 5
147 25 67 14 167 35 240 48 14 3 45 9 70 15 25 5 90 19 145 30 55 12 127 27
160 35 68 15 90 15 106 -1z m1498 -1 c9 -17 151 -224 169 -247 26 -33 122
-186 122 -194 0 -6 5 -11 10 -11 15 0 12 -14 -9 -36 -25 -28 -37 -53 -45 -96
l-7 -36 -112 -27 c-62 -15 -123 -29 -137 -32 -14 -2 -77 -17 -140 -33 -63 -16
-126 -31 -140 -33 -14 -3 -41 -8 -60 -12 -30 -5 -39 -2 -59 18 -27 30 -26 32
35 164 24 52 44 96 44 98 0 2 13 32 29 67 16 35 50 113 76 173 67 157 108 245
112 241 3 -2 16 0 31 4 45 14 71 11 81 -8z m-1279 -123 c30 -28 74 -67 98 -87
23 -19 59 -51 80 -71 33 -32 197 -182 243 -221 29 -26 180 -163 217 -197 38
-36 58 -98 39 -122 -17 -20 -80 -48 -537 -234 -140 -58 -285 -118 -322 -135
-59 -27 -69 -28 -79 -15 -7 8 -33 28 -57 45 l-44 30 7 52 c11 81 12 84 39 226
14 74 28 146 30 160 2 14 5 27 6 30 2 3 2 8 1 12 0 3 7 41 15 85 9 43 18 92
19 108 2 17 6 41 10 55 3 14 8 41 11 60 3 19 7 42 9 50 3 8 7 33 10 55 12 83
38 211 47 228 8 16 14 14 56 -22 26 -22 72 -63 102 -92z m-2004 6 c123 -15
210 -27 339 -46 39 -6 81 -12 95 -13 14 -2 30 -4 37 -4 11 -2 33 -53 33 -77 0
-6 -62 -42 -137 -79 -76 -37 -145 -72 -153 -77 -38 -22 -509 -252 -543 -265
-38 -13 -40 -13 -67 14 l-28 28 114 231 114 231 44 15 c24 8 54 25 65 36 12
12 25 20 30 17 4 -3 30 -8 57 -11z m581 -228 c47 -32 46 -15 10 -212 -15 -77
-29 -156 -32 -175 -8 -49 -17 -101 -22 -125 -5 -27 -17 -92 -47 -266 -14 -80
-32 -176 -40 -215 -14 -69 -30 -168 -31 -192 0 -12 -57 -52 -75 -52 -8 0 -65
57 -145 145 -30 34 -214 230 -290 310 -27 28 -84 90 -127 136 -42 47 -94 103
-117 126 -22 23 -47 55 -55 71 -19 37 -35 26 234 159 113 55 311 152 440 216
129 63 239 112 245 109 6 -4 29 -20 52 -35z m209 -15 c5 -4 45 -50 88 -102 43
-52 95 -115 114 -139 20 -24 49 -60 65 -80 16 -20 42 -52 57 -71 169 -205 284
-346 319 -392 22 -28 27 -53 12 -63 -19 -11 -38 -63 -36 -98 3 -46 28 -34
-365 -168 -139 -48 -298 -104 -330 -116 -8 -4 -17 -7 -20 -8 -3 -1 -12 -4 -20
-8 -8 -3 -43 -14 -77 -25 l-62 -20 -17 25 c-9 15 -28 36 -42 48 l-26 22 22
114 c12 63 24 128 27 144 3 17 7 41 10 55 36 190 48 255 56 310 5 36 14 85 19
110 6 25 13 61 15 80 8 67 55 319 64 342 6 16 22 26 52 34 55 15 61 15 75 6z
m2961 -113 c15 -5 40 -24 56 -40 21 -24 27 -40 27 -77 0 -51 -26 -104 -59
-121 -31 -17 -37 6 -11 42 13 17 24 47 26 66 3 50 -25 77 -93 91 -53 11 -54
12 -37 31 19 21 49 24 91 8z m-111 -44 c6 -14 -4 -32 -41 -80 -14 -17 -17 -18
-25 -5 -15 23 -12 36 16 69 29 34 42 38 50 16z m13 -155 c12 0 51 -40 51 -52
0 -15 -57 -2 -76 17 -21 21 -44 67 -38 77 3 4 16 -3 30 -17 14 -14 28 -25 33
-25z m-94 -21 c23 -35 92 -79 123 -79 29 0 39 -22 47 -105 4 -38 9 -79 11 -89
2 -11 8 -56 14 -100 13 -97 18 -140 25 -186 2 -19 7 -53 10 -75 3 -22 7 -53
10 -70 2 -16 7 -52 10 -80 3 -27 8 -63 10 -80 13 -88 14 -125 5 -125 -7 0 -64
44 -90 70 -3 3 -41 36 -85 75 -44 38 -105 92 -135 120 -48 43 -114 102 -210
185 -61 53 -145 127 -166 145 -12 11 -53 47 -90 80 -107 93 -164 151 -164 167
0 16 47 43 90 52 21 4 300 67 365 82 11 3 29 7 40 9 11 3 43 11 70 18 80 20
88 19 110 -14z m-3884 -241 c74 -78 159 -169 189 -202 48 -53 113 -122 240
-256 56 -59 174 -191 188 -211 10 -14 10 -24 2 -39 -6 -11 -10 -26 -9 -33 5
-36 -11 -49 -173 -142 -95 -54 -239 -136 -319 -182 -81 -45 -150 -83 -155 -83
-5 0 -22 14 -38 31 -17 16 -52 37 -79 47 -58 20 -63 30 -71 134 -3 41 -8 81
-10 89 -10 32 -20 161 -20 259 1 109 9 185 29 275 3 11 34 213 40 260 3 17 7
41 10 55 3 14 7 42 10 64 6 50 14 76 25 76 4 0 68 -64 141 -142z m3055 29 c13
-16 22 -32 19 -37 -4 -6 -71 -341 -89 -445 -3 -16 -10 -57 -15 -90 -6 -33 -15
-75 -20 -93 -5 -18 -10 -33 -9 -35 0 -3 -14 -97 -18 -122 -19 -104 -18 -103
-66 -70 -19 13 -106 64 -194 113 -87 49 -175 98 -194 109 -19 11 -61 34 -94
52 -32 18 -82 47 -110 64 -28 17 -76 43 -108 58 -31 15 -60 33 -64 40 -10 17
-8 99 2 108 8 8 65 31 464 193 80 32 154 63 165 68 11 4 34 14 50 20 17 6 75
31 130 54 55 24 106 43 113 43 7 0 24 -13 38 -30z m173 -33 c27 -22 187 -161
207 -179 60 -55 99 -89 154 -134 36 -30 67 -57 70 -60 3 -3 45 -42 95 -86 49
-44 99 -89 111 -100 27 -26 138 -122 177 -155 46 -38 77 -70 77 -80 0 -10 -35
-18 -115 -25 -71 -6 -138 -14 -180 -20 -16 -2 -50 -7 -75 -9 -25 -3 -72 -8
-105 -12 -33 -4 -69 -8 -80 -9 -11 -2 -42 -6 -70 -10 -27 -4 -66 -8 -85 -10
-135 -11 -204 -17 -219 -20 -109 -21 -151 -14 -151 25 0 11 -15 23 -40 33
l-39 15 5 49 c2 26 7 56 10 65 6 20 11 44 24 118 15 88 20 113 26 140 4 14 8
38 10 54 14 108 74 375 92 411 25 50 39 50 101 -1z m-1366 -535 c26 -6 49 -14
51 -18 2 -3 7 -28 10 -56 4 -27 9 -57 11 -65 2 -8 6 -37 10 -65 3 -27 8 -61
10 -75 2 -14 6 -43 9 -65 4 -22 8 -51 11 -65 2 -14 6 -45 9 -70 8 -61 25 -188
31 -227 13 -83 15 -101 21 -149 11 -92 -19 -111 -95 -61 -32 22 -123 76 -626
373 -77 46 -145 88 -152 93 -7 6 -16 11 -20 11 -5 0 -25 11 -45 25 -20 14 -56
35 -80 48 -74 40 -92 51 -136 85 -23 19 -39 38 -36 44 9 14 67 37 229 92 77
27 146 53 153 58 6 6 12 8 12 4 0 -3 12 -1 28 5 15 6 83 31 152 55 69 23 170
58 225 78 l100 35 36 -39 c25 -27 50 -42 82 -51z m277 36 c29 -19 364 -207
585 -330 107 -59 155 -90 155 -101 0 -7 -100 -85 -222 -175 -123 -90 -285
-210 -362 -266 -146 -109 -158 -113 -200 -73 -10 10 -19 31 -21 46 -3 35 -15
141 -20 169 -2 11 -6 36 -9 55 -3 19 -8 58 -11 85 -3 28 -8 59 -10 70 -2 11
-7 40 -10 65 -3 25 -7 56 -10 69 -2 13 -7 47 -10 75 -8 77 -14 129 -19 151 -3
11 -8 41 -11 66 -6 45 -5 47 28 67 18 12 42 31 52 42 21 23 40 20 95 -15z
m-1413 -441 c1 -33 4 -104 8 -159 7 -101 8 -128 20 -419 3 -88 7 -162 7 -165
2 -22 -8 -33 -51 -56 -46 -26 -76 -66 -95 -130 -5 -16 -15 -20 -58 -21 -29 -1
-96 -3 -148 -4 -95 -3 -95 -3 -127 28 -21 21 -41 32 -60 32 -16 0 -34 8 -41
18 -24 34 -228 348 -251 384 l-22 37 29 43 c37 55 51 96 42 129 -10 34 -4 41
45 69 100 57 161 92 175 100 8 6 92 52 185 104 94 51 186 102 205 113 l35 20
50 -32 50 -33 2 -58z m109 93 c27 -11 177 -99 424 -247 190 -114 596 -354 640
-378 64 -35 81 -54 84 -96 2 -22 11 -42 22 -50 18 -13 17 -17 -10 -97 -16 -46
-32 -88 -36 -94 -4 -5 -27 -64 -51 -130 -24 -66 -47 -122 -51 -123 -5 -2 -6
-7 -3 -12 2 -4 -4 -17 -13 -28 l-18 -21 -105 25 c-57 13 -134 31 -170 39 -36
8 -129 30 -205 49 -77 19 -155 37 -174 41 -35 7 -52 11 -147 41 -47 14 -53 19
-53 43 0 15 -10 47 -22 71 -18 35 -35 51 -78 73 -30 15 -58 31 -61 35 -4 4
-10 66 -13 137 -11 242 -15 320 -22 450 -10 200 -10 231 5 259 16 30 19 30 57
13z m3294 -38 c0 -27 -132 -400 -176 -496 -8 -17 -14 -34 -14 -37 0 -4 -16
-48 -36 -99 -20 -50 -51 -132 -70 -182 -53 -139 -66 -165 -85 -175 -23 -13
-11 -26 -366 415 -132 165 -268 334 -302 375 -87 106 -84 115 39 125 36 3 76
8 90 10 14 2 54 7 90 10 36 3 76 7 90 10 14 2 55 7 92 10 37 3 76 8 87 10 20
4 93 11 186 20 79 7 166 17 215 25 25 4 71 8 103 9 l57 1 0 -31z m-1234 -156
c-3 -38 -8 -86 -10 -108 -3 -22 -8 -62 -11 -90 -3 -27 -7 -63 -9 -80 -4 -27
-14 -126 -21 -210 -2 -16 -3 -33 -4 -38 0 -4 -25 -19 -55 -34 -37 -18 -62 -39
-77 -64 -28 -45 -19 -45 -199 6 -63 18 -153 43 -200 55 -98 26 -142 52 -133
78 9 23 23 37 138 121 55 41 119 88 142 105 23 17 52 39 65 48 86 62 281 207
323 239 28 21 51 39 53 39 2 0 1 -30 -2 -67z m76 24 c16 -16 69 -80 140 -168
103 -127 174 -215 246 -304 40 -49 84 -103 97 -120 104 -131 130 -163 149
-185 56 -66 87 -110 82 -119 -7 -10 -26 -9 -106 7 -30 6 -66 13 -80 16 -14 2
-32 7 -40 10 -8 3 -33 8 -55 11 -22 3 -60 10 -85 15 -46 10 -181 37 -235 47
-39 6 -54 20 -50 43 4 22 -14 77 -38 113 -9 15 -40 38 -68 52 -49 26 -50 27
-45 63 3 20 8 66 11 102 3 35 8 80 11 100 10 75 13 98 19 175 11 154 17 172
47 142z m-3117 -90 c32 -8 65 -61 47 -79 -20 -20 -87 25 -98 67 -6 26 -5 28
17 21 13 -4 29 -8 34 -9z m-85 -15 c0 -9 -13 -30 -29 -47 -43 -44 -48 -75 -17
-112 14 -17 39 -33 55 -36 56 -12 77 -62 28 -69 -40 -6 -89 16 -123 56 -29 34
-34 47 -34 92 0 48 4 57 38 92 39 40 82 53 82 24z m174 -124 c-27 -89 -74
-128 -88 -73 -11 43 28 95 70 95 22 0 24 -3 18 -22z m2306 -383 c5 -3 154 -44
220 -61 203 -50 210 -53 210 -91 0 -38 39 -100 79 -126 79 -52 158 -41 229 32
42 43 44 44 80 33 31 -9 85 -20 114 -23 4 0 22 -5 40 -10 18 -5 49 -12 68 -15
19 -3 64 -12 100 -19 36 -7 94 -19 130 -26 116 -21 110 -25 -175 -93 -82 -19
-159 -37 -170 -39 -11 -2 -27 -7 -35 -10 -8 -3 -49 -13 -90 -23 -41 -9 -147
-34 -235 -56 -88 -22 -170 -42 -182 -44 -12 -2 -34 -9 -47 -14 -22 -8 -28 -5
-47 23 -31 43 -79 87 -98 88 -21 1 -50 6 -65 12 -16 6 -226 429 -226 455 0 10
2 21 5 24 6 5 81 -8 95 -17z m-50 -215 c45 -91 91 -184 103 -208 22 -42 22
-43 3 -54 -28 -16 -96 -87 -96 -100 0 -13 -22 -9 -189 31 -68 17 -128 34 -133
39 -5 5 19 79 55 173 35 90 76 196 91 236 15 39 33 74 39 76 22 8 45 -27 127
-193z m-1568 -122 c13 -22 40 -55 61 -72 35 -28 46 -31 108 -31 l70 0 38 -70
c21 -38 66 -119 100 -180 61 -109 73 -148 48 -158 -14 -5 -176 60 -292 118
-73 37 -83 45 -260 210 -60 56 -129 120 -152 141 -35 31 -54 61 -40 65 1 0 43
3 92 6 50 3 91 6 92 7 1 1 26 2 57 4 54 2 54 2 78 -40z m507 -33 c80 -19 164
-40 186 -45 22 -6 49 -13 60 -15 20 -5 148 -36 329 -80 54 -14 101 -26 103
-29 3 -2 -23 -76 -57 -163 -34 -87 -73 -189 -86 -227 -28 -82 -36 -93 -75
-101 -17 -4 -35 -15 -41 -25 -11 -17 -16 -16 -87 15 -42 18 -98 42 -126 55
-27 13 -69 31 -92 41 -35 15 -43 23 -43 44 0 14 1 27 3 29 5 10 -48 56 -64 56
-25 0 -49 28 -83 97 -16 32 -56 104 -88 161 -32 57 -58 107 -58 112 0 5 -5 10
-11 12 -18 6 43 97 65 98 10 0 84 -16 165 -35z m2506 -20 c-16 -13 -33 -24
-37 -25 -4 0 -33 -18 -65 -40 -32 -22 -65 -45 -73 -50 -84 -58 -718 -464 -746
-479 -32 -18 -39 -18 -59 -5 -12 8 -24 12 -27 8 -9 -8 -41 42 -82 126 -41 85
-42 90 -21 130 14 26 22 57 24 86 1 11 21 16 206 60 55 12 120 28 145 34 25 7
52 13 60 15 8 2 44 11 80 20 56 15 90 22 219 51 14 3 28 7 31 9 4 2 20 7 36
10 16 3 90 20 164 39 171 43 185 44 145 11z m-1675 -186 c47 -11 94 -22 105
-24 11 -3 32 -7 47 -10 59 -11 75 -22 81 -58 9 -58 52 -113 109 -137 50 -21
71 -21 153 5 17 5 27 -7 67 -89 43 -86 46 -97 35 -125 -6 -17 -16 -31 -22 -32
-5 0 -19 -2 -29 -4 -22 -4 -154 -14 -281 -20 -49 -3 -124 -7 -165 -9 -316 -19
-347 -19 -370 4 -17 17 -21 29 -16 53 5 26 140 381 169 445 12 27 11 27 117 1z"/>
</g>
</svg>
